<svg width="16" height="16" viewBox="0 0 16 16" fill="none" xmlns="http://www.w3.org/2000/svg">
<path d="M11.1955 9.06673C11.3232 8.72564 11.3879 8.36424 11.3866 8.00006C11.3866 7.19145 11.0654 6.41595 10.4936 5.84417C9.92187 5.27239 9.14637 4.95117 8.33776 4.95117C7.97806 4.95159 7.62134 5.01631 7.28442 5.14228L7.99998 5.88006C8.10875 5.86266 8.21871 5.85374 8.32887 5.85339C8.90062 5.8522 9.44961 6.07728 9.85598 6.47948C10.2623 6.88168 10.4931 7.42833 10.4978 8.00006C10.4974 8.11022 10.4885 8.22017 10.4711 8.32895L11.1955 9.06673Z" fill="#C7D2D6"/>
<path d="M15.2399 7.79113C13.7421 5.02224 11.1154 3.34668 8.20877 3.34668C7.41737 3.34854 6.63129 3.47605 5.87988 3.72446L6.59544 4.44446C7.12248 4.30825 7.66442 4.23808 8.20877 4.23557C10.711 4.23557 12.9865 5.63112 14.3421 7.98224C13.8448 8.85451 13.1856 9.62383 12.3999 10.2489L13.031 10.88C13.9404 10.1464 14.6956 9.2401 15.2532 8.21335L15.3688 8.00001L15.2399 7.79113Z" fill="#C7D2D6"/>
<path d="M2.16453 2.56896L4.14675 4.55118C2.89382 5.3579 1.86982 6.47375 1.17342 7.79118L1.05786 8.00007L1.17342 8.2134C2.67119 10.9823 5.29786 12.6578 8.20453 12.6578C9.33904 12.6576 10.4588 12.4008 11.4801 11.9067L13.7023 14.129L14.4801 13.4623L2.92453 1.90674L2.16453 2.56896ZM6.49786 6.90229L9.45341 9.85785C9.11947 10.0646 8.73504 10.1753 8.3423 10.1778C8.05694 10.1779 7.77439 10.1214 7.51092 10.0118C7.24744 9.90222 7.00824 9.74159 6.80708 9.53919C6.60592 9.33679 6.44676 9.09661 6.33878 8.83246C6.23079 8.56832 6.1761 8.28543 6.17786 8.00007C6.18287 7.61188 6.29349 7.23237 6.49786 6.90229ZM5.85342 6.25785C5.43761 6.84425 5.24272 7.55887 5.30324 8.27518C5.36377 8.99148 5.67582 9.66327 6.18413 10.1716C6.69244 10.6799 7.36422 10.9919 8.08053 11.0525C8.79684 11.113 9.51146 10.9181 10.0979 10.5023L10.809 11.2134C9.98576 11.5653 9.09979 11.7467 8.20453 11.7467C5.7023 11.7467 3.42675 10.3512 2.07119 8.00007C2.72173 6.84817 3.65863 5.88372 4.79119 5.20007L5.85342 6.25785Z" fill="#C7D2D6"/>
</svg>
